/* XPM */
static char *_2befe5470fc40928b530ae3111bcf32VXzRPBkWA2Yk6k2k[] = {
/* columns rows colors chars-per-pixel */
"32 32 151 2 ",
"   c None",
".  c #B00000",
"X  c #B10000",
"o  c #B00101",
"O  c #B10101",
"+  c #B20000",
"@  c #B30000",
"#  c #B10202",
"$  c #B10303",
"%  c #B50000",
"&  c #B70000",
"*  c #B10404",
"=  c #B20505",
"-  c #B30505",
";  c #B20606",
":  c #B30606",
">  c #B20707",
",  c #B80000",
"<  c #BA0000",
"1  c #BD0000",
"2  c #B30808",
"3  c #B30909",
"4  c #B30A0A",
"5  c #B40D0D",
"6  c #B51010",
"7  c #B51111",
"8  c #B61313",
"9  c #B61414",
"0  c #B71717",
"q  c #B71818",
"w  c #B81818",
"e  c #B81919",
"r  c #B81A1A",
"t  c #B81B1B",
"y  c #B91B1B",
"u  c #B91C1C",
"i  c #B91D1D",
"p  c #BA1D1D",
"a  c #B91E1E",
"s  c #BA1F1F",
"d  c #BD1E1E",
"f  c #BA2020",
"g  c #BA2121",
"h  c #BB2222",
"j  c #BB2323",
"k  c #BC2525",
"l  c #BF2424",
"z  c #BC2727",
"x  c #BE2727",
"c  c #BD2828",
"v  c #BD2A2A",
"b  c #BE2B2B",
"n  c #BE2D2D",
"m  c #BE2E2E",
"M  c #BF3131",
"N  c #C61717",
"B  c #C81616",
"V  c #CB1A1A",
"C  c #C32727",
"Z  c #C03131",
"A  c #C03232",
"S  c #C13636",
"D  c #C13737",
"F  c #C13838",
"G  c #C23A3A",
"H  c #C73A3A",
"J  c #C33C3C",
"K  c #C44040",
"L  c #C44141",
"P  c #C54242",
"I  c #C54343",
"U  c #C64545",
"Y  c #C64747",
"T  c #C64848",
"R  c #C74949",
"E  c #C74A4A",
"W  c #C84B4B",
"Q  c #C84C4C",
"!  c #C84E4E",
"~  c #C94F4F",
"^  c #D64444",
"/  c #C95050",
"(  c #C95151",
")  c #C95252",
"_  c #CA5252",
"`  c #CA5454",
"'  c #CF5454",
"]  c #CB5858",
"[  c #CC5B5B",
"{  c #CF5A5A",
"}  c #CD5E5E",
"|  c #CE5F5F",
" . c #CE6161",
".. c #CF6262",
"X. c #CF6363",
"o. c #CF6464",
"O. c #D06565",
"+. c #D06767",
"@. c #DA6666",
"#. c #D06868",
"$. c #D16A6A",
"%. c #D16B6B",
"&. c #D26D6D",
"*. c #D26E6E",
"=. c #D76E6E",
"-. c #D37070",
";. c #D37272",
":. c #D47272",
">. c #D57373",
",. c #D77575",
"<. c #D57777",
"1. c #D97474",
"2. c #D57878",
"3. c #D67979",
"4. c #D97D7D",
"5. c #DE7C7C",
"6. c #E26E6E",
"7. c #E36E6E",
"8. c #E47070",
"9. c #DA8888",
"0. c #DB8888",
"q. c #DC8C8C",
"w. c #DF9999",
"e. c #E58080",
"r. c #E68888",
"t. c #ED9191",
"y. c #EE9494",
"u. c #E8A7A7",
"i. c #E8A9A9",
"p. c #EAAAAA",
"a. c #F5CCCC",
"s. c #F2D3D3",
"d. c #F3D3D3",
"f. c #F6D4D4",
"g. c #FBD8D8",
"h. c #F8E2E2",
"j. c #F9E2E2",
"k. c #FCE1E1",
"l. c #F8E5E5",
"z. c #FCE5E5",
"x. c #FCE6E6",
"c. c #FDE8E8",
"v. c #FDEEEE",
"b. c #FDF6F6",
"n. c #FEF6F6",
"m. c #FEF7F7",
"M. c #FEFAFA",
"N. c #FFFBFB",
"B. c #FFFDFD",
"V. c #FFFEFE",
"C. c white",
/* pixels */
"                          . . . . . . .                         ",
"                    * r J !  .o.#. .) P z 4                     ",
"                5 G >.>.R M i 9 7 q b D ) +.P i                 ",
"              2 3.9.n . . . . . . . . . . * ! o.i .             ",
"          . R w.j . . . . . . . . . . . . . . . P W 4           ",
"        . D 3.b . . . . . . . . . . . . . . . . . z D 4         ",
"        R 3.7 . . . . . . . . . . . . . . . . . . . g P *       ",
"      2 w.b . . . . . . . . . . . . . . . . . . . . . z b .     ",
"    5 3.j . . . . . . . . . . . . . . . . . . . . . . . ! j     ",
"    G 9.. . . . . . . . * z { 1.4.4.4.4.4.,.i . . . . . j U .   ",
"  * ;.n . . . . . . . d p.l.V.V.V.V.V.V.V.V.5.. . . . . . W i   ",
"  r ;.. . . . . . . d p.V.V.V.x.g.g.g.g.M.V.r.% . . . . . Z D   ",
"  J R . . . . . . * u.V.m.y.V 1 < % < % a.V.r.. . . . . . r ' . ",
". ! M . . . . . . C h.V.t.N . . . . . . a.V.r.. . . . . . * *.. ",
". | i . . . . . . ' V.V.N . . . . . . . a.V.r.. . . . . . . ;.6 ",
". +.9 . . . . . . =.V.c.< . . . . . . . a.V.r.. . . . . . . %.g ",
". +.8 . . . . . . 1.V.z.C z C z b z z C f.V.r.. . . . . . . #.z ",
". O.r . . . . . . 1.V.M.d.d.d.d.d.d.d.d.m.V.r.. . . . . . . -.0 ",
". ) z . . . . . . 1.V.V.m.m.m.m.b.m.m.m.V.V.r.% . . . . . * ,.* ",
". J D . . . . . . 1.V.v.6.6.6.7.6.6.6.6.j.V.r.. . . . . . r #.. ",
"  z ) . . . . . . 1.V.j.% . . . . . . . a.V.r.% . . . . . G W . ",
"  4 O.* . . . . . 1.V.k.% . . . . . . . a.V.r.. . . . . . +.b   ",
"    J R . . . . . H e.8.% . . . . . . . @.e.^ . . . . . G -.*   ",
"    r | . . . . . . % . . . . . . . . . . . % . . . . . 0.P     ",
"      i G . . . . . . . . . . . . . . . . . . . . . . R [ *     ",
"      . P g . . . . . . . . . . . . . . . . . . . . G q.5       ",
"        2 n 9 . . . . . . . . . . . . . . . . . . G ,.g         ",
"          2 Z r . . . . . . . . . . . . . . . . W q.i .         ",
"            * i D 9 . . . . . . . . . . . . G 9.| 5             ",
"              . q G G b 9 * . . . . * 0 J  .;.P *               ",
"                  . i M ` #.=.#.#.-.3.#.W b *                   ",
"                        . . 7 i z 0 * . .                       "
};
