/* XPM */
static char *_e56e1dcca5147469db9495a107d0c51TKT8spr8EQJUjT4e[] = {
/* columns rows colors chars-per-pixel */
"16 16 94 2 ",
"   c None",
".  c #B00000",
"X  c #B00101",
"o  c #B30000",
"O  c #B10202",
"+  c #B10505",
"@  c #B20606",
"#  c #B20707",
"$  c #B30707",
"%  c #B50909",
"&  c #B50F0F",
"*  c #B61313",
"=  c #B71313",
"-  c #B71515",
";  c #B71717",
":  c #B91212",
">  c #BB1616",
",  c #BD1717",
"<  c #B81818",
"1  c #B81919",
"2  c #B81A1A",
"3  c #B81B1B",
"4  c #B91C1C",
"5  c #B91D1D",
"6  c #BB1D1D",
"7  c #B91E1E",
"8  c #BB1E1E",
"9  c #BA1F1F",
"0  c #BA2121",
"q  c #BB2222",
"w  c #BB2323",
"e  c #BD2222",
"r  c #BF2222",
"t  c #BE2C2C",
"y  c #BE2D2D",
"u  c #BE2E2E",
"i  c #BF2F2F",
"p  c #BF3030",
"a  c #BF3232",
"s  c #C02222",
"d  c #C22626",
"f  c #C12828",
"g  c #C03434",
"h  c #C13737",
"j  c #C33737",
"k  c #C23B3B",
"l  c #C33B3B",
"z  c #C33C3C",
"x  c #C33D3D",
"c  c #C33E3E",
"v  c #C43E3E",
"b  c #C43F3F",
"n  c #C54242",
"m  c #C54343",
"M  c #C54444",
"N  c #C54545",
"B  c #C64747",
"V  c #C64848",
"C  c #C74848",
"Z  c #C74949",
"A  c #C84B4B",
"S  c #CE4A4A",
"D  c #CF4A4A",
"F  c #CB4D4D",
"G  c #CA5050",
"H  c #CA5252",
"J  c #CD5454",
"K  c #CF5656",
"L  c #CF5A5A",
"P  c #CF5E5E",
"I  c #CF5F5F",
"U  c #D55E5E",
"Y  c #D66464",
"T  c #DE7777",
"R  c #DF9393",
"E  c #E29B9B",
"W  c #E39D9D",
"Q  c #EDB7B7",
"!  c #EDBABA",
"~  c #EDBCBC",
"^  c #EFBCBC",
"/  c #F0B9B9",
"(  c #F0BEBE",
")  c #F1C5C5",
"_  c #F2C5C5",
"`  c #F2C8C8",
"'  c #F3C8C8",
"]  c #F3C9C9",
"[  c #F3CACA",
"{  c #F6D7D7",
"}  c #F7DCDC",
"|  c #F8DEDE",
" . c #F8E1E1",
".. c #FBE5E5",
/* pixels */
"            A B B V w           ",
"        m n w 9 9 9 y h         ",
"    h V - . . . . . . # w w     ",
"    V & . . . . . . . . . 9     ",
"  m - . . . 9 F P P H - . . y   ",
"  b . . . h ~ [ ) [ { K . . w p ",
"A w . . 6 ! T s > f [ Y . . 9 z ",
"B 9 . . F ' s . . * ) Y . . 1 z ",
"B 9 . . L } E E R E | Y . . < b ",
"B 9 . . L  ./ Q Q ~ ..Y . . 9 m ",
"w y . . K ! , . o : / U . . f n ",
"  p # . e D % . . $ D d . # V   ",
"    9 . . . . . . . . . . k y   ",
"    9 - . . . . . . . # z m     ",
"        w 1 9 < 1 9 p V y       ",
"          y k z z m z           "
};
