/* XPM */
static char *d99a8566ec8247db818372ed1bec5e2eygSVDvY0nxsnKN80[] = {
/* columns rows colors chars-per-pixel */
"64 64 124 2 ",
"   c None",
".  c #B00000",
"X  c #B90000",
"o  c #B40B0B",
"O  c #B90C0C",
"+  c #B61313",
"@  c #BB1414",
"#  c #B91D1D",
"$  c #BB2323",
"%  c #BE2C2C",
"&  c #BF3131",
"*  c #C50101",
"=  c #CC0202",
"-  c #C30909",
";  c #E01C1C",
":  c #C42424",
">  c #C92D2D",
",  c #C13434",
"<  c #CD3434",
"1  c #C43C3C",
"2  c #C83D3D",
"3  c #E42424",
"4  c #E32828",
"5  c #C44242",
"6  c #C74949",
"7  c #CB4E4E",
"8  c #D04E4E",
"9  c #CA5454",
"0  c #CC5B5B",
"q  c #D35757",
"w  c #EB5D5D",
"e  c #CE6060",
"r  c #D16464",
"t  c #D26C6C",
"y  c #D37272",
"u  c #D67C7C",
"i  c #E76161",
"p  c #E96464",
"a  c #EA7272",
"s  c #EC7878",
"d  c #D98383",
"f  c #DC8C8C",
"g  c #DE9393",
"h  c #E38686",
"j  c #EB8282",
"k  c #EF8E8E",
"l  c #F18686",
"z  c #F08A8A",
"x  c #E29B9B",
"c  c #EA9999",
"v  c #F39696",
"b  c #E3A2A2",
"n  c #EBA2A2",
"m  c #E5ACAC",
"M  c #ECA9A9",
"N  c #F3ACAC",
"B  c #E7B1B1",
"V  c #E9B4B4",
"C  c #EBBDBD",
"Z  c #F4B5B5",
"A  c #F7B9B9",
"S  c #F8BFBF",
"D  c #EDC4C4",
"F  c #EEC8C8",
"G  c #EFCACA",
"H  c #EFCBCB",
"J  c #EFCDCD",
"K  c #F4CACA",
"L  c #F0CDCD",
"P  c #F0CECE",
"I  c #F4CCCC",
"U  c #F0CDCD",
"Y  c #F9C8C8",
"T  c #F1D0D0",
"R  c #F1D2D2",
"E  c #F4D1D1",
"W  c #F2D4D4",
"Q  c #F2D5D5",
"!  c #F3D6D6",
"~  c #F3D7D7",
"^  c #F2D5D5",
"/  c #F3D8D8",
"(  c #F3D9D9",
")  c #F4D9D9",
"_  c #F4DBDB",
"`  c #F5DDDD",
"'  c #F5DEDE",
"]  c #F5DDDD",
"[  c #F8DBDB",
"{  c #FBDBDB",
"}  c #FBDDDD",
"|  c #F8DEDE",
" . c #F6E0E0",
".. c #F6E1E1",
"X. c #F6E3E3",
"o. c #F6E1E1",
"O. c #F9E0E0",
"+. c #F9E2E2",
"@. c #FCE2E2",
"#. c #F8E7E7",
"$. c #FAE7E7",
"%. c #F8E7E7",
"&. c #F8E9E9",
"*. c #FAEFEF",
"=. c #FDECEC",
"-. c #FCEEEE",
";. c #F9EBEB",
":. c #FAF0F0",
">. c #FBF0F0",
",. c #FEF1F1",
"<. c #FCF2F2",
"1. c #FDF3F3",
"2. c #FCF5F5",
"3. c #FDF6F6",
"4. c #FBF0F0",
"5. c #FEF8F8",
"6. c #FEF9F9",
"7. c #FEFAFA",
"8. c #FEFBFB",
"9. c #FFFBFB",
"0. c #FFFCFC",
"q. c #FFFDFD",
"w. c #FFFEFE",
"e. c white",
/* pixels */
"                                                          . . . . . .                                                           ",
"                                                . . . . . . . . . . . . . . . .                                                 ",
"                                          . . . . o # & 5 9 e t t r 0 5 & $ o . . . .                                           ",
"                                      . . . . # 9 d C ' 3.X.R H H J _ *.o.D f 9 # . . . .                                       ",
"                                  . . . + u F &.B u 5 # . . . . . . . . + % e g F J d # . . . .                                 ",
"                              . . . $ g :.F t + . . . . . . . . . . . . . . . . . $ f _ b & . . .                               ",
"                          . . . # g ^ b 9 o . . . . . . . . . . . . . . . . . . . . . $ 9 b g $ . . .                           ",
"                        . . . 0 _ F & . . . . . . . . . . . . . . . . . . . . . . . . . . . & D y . . .                         ",
"                      . . + d ' d . . . . . . . . . . . . . . . . . . . . . . . . . . . . . . + y d # . .                       ",
"                    . . + H ( , . . . . . . . . . . . . . . . . . . . . . . . . . . . . . . . . . 6 m # . .                     ",
"                  . . % D b & . . . . . . . . . . . . . . . . . . . . . . . . . . . . . . . . . . . # f , . .                   ",
"                . . % ~ m o . . . . . . . . . . . . . . . . . . . . . . . . . . . . . . . . . . . . . + g , . .                 ",
"              . . + C B + . . . . . . . . . . . . . . . . . . . . . . . . . . . . . . . . . . . . . . . o d # . .               ",
"            . . + J b o . . . . . . . . . . . . . . . . . . . . . . . . . . . . . . . . . . . . . . . . . + g $ . .             ",
"            . . d ( & . . . . . . . . . . . . . . . . . . . . . . . . . . . . . . . . . . . . . . . . . . . % u . .             ",
"          . . 0 o.& . . . . . . . . . . . . . . . . . . . . . . . . . . . . . . . . . . . . . . . . . . . . . 6 y o .           ",
"          . $ ( d . . . . . . . . . . . . . . . . . . . . . . . . . . . . . . . . . . . . . . . . . . . . . . . g % . .         ",
"        . . f F . . . . . . . . . . . . . . . . . . . . . . . . . . . . . . . . . . . . . . . . . . . . . . . . $ d o .         ",
"        . % R & . . . . . . . . . . . . . . . . . . . . @ % , 2 2 2 2 2 2 2 2 2 2 2 1 @ . . . . . . . . . . . . . u & . .       ",
"      . . g b . . . . . . . . . . . . . . . . . . - r b ~ &.3.9.w.8.w.9.9.w.w.w.9.w.9.~ 9 . . . . . . . . . . . . & b . .       ",
"      . # *.7 . . . . . . . . . . . . . . . . . > M w.w.w.w.w.w.w.w.w.w.w.w.w.w.w.w.w.w.B X . . . . . . . . . . . o C % .       ",
"    . . u H + . . . . . . . . . . . . . . . o f 9.w.w.w.w.w.w.w.w.w.w.w.w.w.w.w.w.w.w.w.K - . . . . . . . . . . . . 7 g . .     ",
"    . . F t . . . . . . . . . . . . . . . o c 9.w.w.w.w.w.w.w.w.w.8.w.w.w.w.w.w.w.w.w.w.Y - . . . . . . . . . . . . . H . .     ",
"    . + &.o . . . . . . . . . . . . . . X h w.w.w.w.w.w.@.A z s a a a a a a a s +.w.w.w.Y - . . . . . . . . . . . . . m % .     ",
"  . . 9 B . . . . . . . . . . . . . . . > 3.w.w.w.w.,.l 3 = X X X X . X X X X O I w.w.w.Y - . . . . . . . . . . . . . y t . .   ",
"  . . f u . . . . . . . . . . . . . . @ n w.w.w.w.} 4 = . . . . . . . . . . . O I w.w.w.Y - . . . . . . . . . . . . . 5 b o .   ",
"  . $ C 5 . . . . . . . . . . . . . . q w.w.w.w.*.3 X . . . . . . . . . . . . O I w.w.w.Y - . . . . . . . . . . . . . + ~ % .   ",
"  . % ' # . . . . . . . . . . . . . X c w.w.w.9.s = . . . . . . . . . . . . . O I w.w.w.Y - . . . . . . . . . . . . . . &.1 .   ",
"  . 5 2.. . . . . . . . . . . . . . O K w.w.w.} ; . . . . . . . . . . . . . . o I w.w.w.K - . . . . . . . . . . . . . . ( 0 . . ",
". . 9 o.. . . . . . . . . . . . . . : o.w.w.w.Z = . . . . . . . . . . . . . . O I w.w.w.Y - . . . . . . . . . . . . . . D t . . ",
". . r R . . . . . . . . . . . . . . > *.w.w.w.k X . . . . . . . . . . . . . . O I w.w.w.Y - . . . . . . . . . . . . . . B d . . ",
". . t H . . . . . . . . . . . . . . < <.w.w.w.j X . . . . . . . . . . . . . . @ I w.w.w.Y - . . . . . . . . . . . . . . m d . . ",
". . y F . . . . . . . . . . . . . . < ,.w.w.w.j X . . . . . . . . . . . . . . O K w.w.w.Y - . . . . . . . . . . . . . . m f . . ",
". . r P . . . . . . . . . . . . . . < 2.w.w.w.N 7 7 7 7 7 7 7 7 7 7 7 7 7 7 7 q ' w.w.w.Y - . . . . . . . . . . . . . . V d . . ",
". . 9 ( . . . . . . . . . . . . . . < ,.w.w.w.w.w.w.w.w.w.w.w.w.w.w.w.w.w.w.w.w.w.w.w.w.Y - . . . . . . . . . . . . . . F y . . ",
"  . 5 *.. . . . . . . . . . . . . . < 2.w.w.w.w.w.w.w.w.w.w.w.w.w.w.w.w.w.w.w.w.w.w.w.w.Y - . . . . . . . . . . . . . . _ 9 . . ",
"  . & o.+ . . . . . . . . . . . . . < 2.w.w.w.w.w.w.w.w.w.w.w.w.w.w.w.w.w.w.w.w.w.w.w.w.Y - . . . . . . . . . . . . . . :.5 .   ",
"  . $ D & . . . . . . . . . . . . . < <.w.w.w.w.w.w.w.w.w.8.w.w.w.w.w.w.w.w.w.w.w.w.w.w.Y - . . . . . . . . . . . . . $ _ & .   ",
"  . . g 9 . . . . . . . . . . . . . < ,.w.w.w.Z w w w w w w w w w w w w w w w p } w.w.w.Y - . . . . . . . . . . . . . 0 m + .   ",
"  . . 0 g . . . . . . . . . . . . . < 2.w.w.w.j X . . . . . . . . . . . . . . O I w.w.w.Y - . . . . . . . . . . . . . g y . .   ",
"    . # F . . . . . . . . . . . . . < 2.w.w.w.j X . . . . . . . . . . . . . . O I w.w.w.Y - . . . . . . . . . . . . . ( & .     ",
"    . . H # . . . . . . . . . . . . < ,.w.w.w.j X . . . . . . . . . . . . . . o I w.w.w.Y - . . . . . . . . . . . . , *.. .     ",
"    . . u d . . . . . . . . . . . . < 2.w.w.w.j . . . . . . . . . . . . . . . O I w.w.w.Y - . . . . . . . . . . . . B g . .     ",
"      . # ~ # . . . . . . . . . . . < ,.w.w.w.j X . . . . . . . . . . . . . . O I w.w.w.K - . . . . . . . . . . . , <.& . .     ",
"      . . x 7 . . . . . . . . . . . : Z D S S i . . . . . . . . . . . . . . . o c D S S v - . . . . . . . . . . . d F . .       ",
"        . & g . . . . . . . . . . . . X = * * * . . . . . . . . . . . . . . . . X = * * * X . . . . . . . . . . # J 5 . .       ",
"        . . f & . . . . . . . . . . . . . . . . . . . . . . . . . . . . . . . . . . . . . . . . . . . . . . . . g B o .         ",
"        . . $ V o . . . . . . . . . . . . . . . . . . . . . . . . . . . . . . . . . . . . . . . . . . . . . . 0 *., . .         ",
"          . o y 0 . . . . . . . . . . . . . . . . . . . . . . . . . . . . . . . . . . . . . . . . . . . . . + J f . .           ",
"            . . d & . . . . . . . . . . . . . . . . . . . . . . . . . . . . . . . . . . . . . . . . . . . # C m o .             ",
"            . . # g + . . . . . . . . . . . . . . . . . . . . . . . . . . . . . . . . . . . . . . . . . . d &.% . .             ",
"              . . # y o . . . . . . . . . . . . . . . . . . . . . . . . . . . . . . . . . . . . . . . . d ~ % . .               ",
"                . . & t . . . . . . . . . . . . . . . . . . . . . . . . . . . . . . . . . . . . . . . d :.6 . .                 ",
"                  . . & e o . . . . . . . . . . . . . . . . . . . . . . . . . . . . . . . . . . . # u ^ 6 . .                   ",
"                    . . # t + . . . . . . . . . . . . . . . . . . . . . . . . . . . . . . . . . + C &.% . .                     ",
"                      . . $ 0 $ . . . . . . . . . . . . . . . . . . . . . . . . . . . . . . . 0 J m % . .                       ",
"                        . . . e 0 o . . . . . . . . . . . . . . . . . . . . . . . . . . . $ g *.f o . .                         ",
"                          . . . $ t 7 # . . . . . . . . . . . . . . . . . . . . . . . , d J V , . . .                           ",
"                              . . . , g g $ . . . . . . . . . . . . . . . . . . . , m <.D 6 . . .                               ",
"                                . . . . % g m g 0 & o . . . . . . . . . o $ 9 g ~ *.g , . . . .                                 ",
"                                    . . . . . % t b ^  .~ D B B B V F ' :.( m y , . . . . .                                     ",
"                                          . . . . + % 1 9 y u d d d t 0 5 % + . . . . .                                         ",
"                                                . . . . . . . . . . . . . . . .                                                 ",
"                                                        . . . . . . . .                                                         "
};
